<svg width="191" height="26" viewBox="0 0 191 26" fill="none" xmlns="http://www.w3.org/2000/svg">
<path d="M4.88477 10.6699H16.3594V5.2998H4.88477V10.6699ZM0.294922 26V0.709961H16.3135C19.3275 0.817057 20.8727 2.33936 20.9492 5.27686V9.13232C20.888 10.8612 20.0312 12.1463 18.3789 12.9878C20.0312 13.8293 20.888 15.1068 20.9492 16.8203V21.4102C20.8727 24.3171 19.3657 25.847 16.4282 26H0.294922ZM16.3594 21.4102V15.2598H4.88477V21.4102H16.3594ZM25.5391 0.801758H30.1289V26H25.5391V0.801758ZM50.7832 14.5254V5.2998H39.3086V14.5254H50.7832ZM39.3086 19.1152V26H34.7188V0.709961H50.7373C53.6901 0.847656 55.2354 2.3929 55.373 5.3457V14.4795C55.2354 17.3864 53.7054 18.9316 50.7832 19.1152L55.4189 26H50.3701L45.7344 19.1152H39.3086ZM59.9629 0.709961H80.6172V5.2998H72.585V26H67.9951V5.2998H59.9629V0.709961ZM101.271 14.4336V5.3457H89.7969V14.4336H101.271ZM89.7969 19.0234V26H85.207V5.3457C85.3141 2.3929 86.8364 0.862956 89.7739 0.755859H101.271C104.224 0.832357 105.754 2.36995 105.861 5.36865V26H101.271V19.0234H89.7969ZM110.451 5.18506C110.589 2.29346 112.126 0.801758 115.064 0.709961H126.516C129.499 0.801758 131.029 2.33171 131.105 5.2998V8.67334H126.516V5.27686H115.041V21.4102H126.516V16.8203H131.105V21.4331C131.029 24.3247 129.491 25.847 126.493 26H115.041C112.119 25.9082 110.589 24.3783 110.451 21.4102V5.18506ZM135.787 0.801758H140.377V26H135.787V0.801758ZM144.967 0.709961H165.621V5.2998H157.589V26H152.999V5.2998H144.967V0.709961ZM170.211 0.755859H174.801V12.2305H186.275V0.755859H190.865V12.2764C190.758 15.168 189.221 16.6826 186.252 16.8203H182.833V26H178.266V16.8203H174.847C171.848 16.6826 170.303 15.1603 170.211 12.2534V0.755859Z" fill="#055D59"/>
</svg>
